# Made in Blockbench 5.1.1
mtllib barbed_nautilus_scale_display.mtl

o base
v 0.375 1.0625 -0.44375
v 0.375 1.0625 -0.56875
v 0.375 0.0625 -0.44375
v 0.375 0.0625 -0.56875
v -0.375 1.0625 -0.56875
v -0.375 1.0625 -0.44375
v -0.375 0.0625 -0.56875
v -0.375 0.0625 -0.44375
vt 0.0625 0.9375
vt 0.4375 0.9375
vt 0.4375 0.4375
vt 0.0625 0.4375
vt 0 0.9375
vt 0.0625 0.9375
vt 0.0625 0.4375
vt 0 0.4375
vt 0.5 0.9375
vt 0.875 0.9375
vt 0.875 0.4375
vt 0.5 0.4375
vt 0.4375 0.9375
vt 0.5 0.9375
vt 0.5 0.4375
vt 0.4375 0.4375
vt 0.4375 0.9375
vt 0.0625 0.9375
vt 0.0625 1
vt 0.4375 1
vt 0.8125 1
vt 0.4375 1
vt 0.4375 0.9375
vt 0.8125 0.9375
vn 0 0 -1
vn 1 0 0
vn 0 0 1
vn -1 0 0
vn 0 1 0
vn 0 -1 0
usemtl texture_principale
f 4/4/1 7/3/1 5/2/1 2/1/1
f 3/8/2 4/7/2 2/6/2 1/5/2
f 8/12/3 3/11/3 1/10/3 6/9/3
f 7/16/4 8/15/4 6/14/4 5/13/4
f 6/20/5 1/19/5 2/18/5 5/17/5
f 7/24/6 4/23/6 3/22/6 8/21/6
o p5
v -0.125 0.78125 -0.8156249999999998
v -0.1875 0.8437499999999999 -0.5656249999999998
v -0.062499999999999986 0.8437499999999999 -0.5656249999999998
v -0.1875 0.7187499999999999 -0.5656249999999998
v -0.06250000000000001 0.7187499999999999 -0.5656249999999998
vt 0.4375 0.34375
vt 0.4375 0.40625
vt 0.375 0.40625
vt 0.375 0.34375
vt 0.1902228125 0.35522156250000003
vt 0.2472771875 0.3297053125
vt 0.2472771875 0.40625
vt 0.0027228125 0.35522156250000003
vt 0.0597771875 0.3297053125
vt 0.0597771875 0.40625
vt 0.0964728125 0.35522156250000003
vt 0.1535271875 0.3297053125
vt 0.1535271875 0.40625
vt 0.2839728125 0.35522156250000003
vt 0.3410271875 0.3297053125
vt 0.3410271875 0.40625
vn 0 -2.220446049250313e-16 1
vn 2.154149081657524e-16 0.9701425001453321 -0.2425356250363328
vn -0.9701425001453319 2.6926863520719046e-16 -0.24253562503633297
vn 0.9701425001453319 -1.6156118112431426e-16 -0.24253562503633297
vn -2.1541490816575234e-16 -0.9701425001453319 -0.2425356250363332
usemtl texture_principale
f 11/25/7 10/26/7 12/27/7 13/28/7
f 10/29/8 11/30/8 9/31/8
f 12/32/9 10/33/9 9/34/9
f 11/35/10 13/36/10 9/37/10
f 13/38/11 12/39/11 9/40/11
o p6
v 0.125 0.78125 -0.8156249999999998
v 0.1875 0.7187499999999999 -0.5656249999999998
v 0.06250000000000001 0.7187499999999999 -0.5656249999999998
v 0.1875 0.8437499999999999 -0.5656249999999998
v 0.062499999999999986 0.8437499999999999 -0.5656249999999998
vt 0.4375 0.34375
vt 0.4375 0.40625
vt 0.375 0.40625
vt 0.375 0.34375
vt 0.1902228125 0.35522156250000003
vt 0.2472771875 0.3297053125
vt 0.2472771875 0.40625
vt 0.0027228125 0.35522156250000003
vt 0.0597771875 0.3297053125
vt 0.0597771875 0.40625
vt 0.0964728125 0.35522156250000003
vt 0.1535271875 0.3297053125
vt 0.1535271875 0.40625
vt 0.2839728125 0.35522156250000003
vt 0.3410271875 0.3297053125
vt 0.3410271875 0.40625
vn 0 -2.220446049250313e-16 1
vn 2.1541490816575234e-16 -0.9701425001453319 -0.2425356250363332
vn 0.9701425001453319 2.6926863520719046e-16 -0.24253562503633297
vn -0.9701425001453319 -1.6156118112431426e-16 -0.24253562503633297
vn -2.154149081657524e-16 0.9701425001453321 -0.2425356250363328
usemtl texture_principale
f 16/41/12 15/42/12 17/43/12 18/44/12
f 15/45/13 16/46/13 14/47/13
f 17/48/14 15/49/14 14/50/14
f 16/51/15 18/52/15 14/53/15
f 18/54/16 17/55/16 14/56/16
o p10
v 0.125 0.5625 -0.8156249999999999
v 0.062499999999999986 0.49999999999999994 -0.5656249999999999
v 0.0625 0.6249999999999999 -0.5656249999999999
v 0.1875 0.4999999999999999 -0.5656249999999999
v 0.1875 0.6249999999999999 -0.5656249999999999
vt 0.4375 0.34375
vt 0.4375 0.40625
vt 0.375 0.40625
vt 0.375 0.34375
vt 0.1902228125 0.35522156250000003
vt 0.2472771875 0.3297053125
vt 0.2472771875 0.40625
vt 0.0027228125 0.35522156250000003
vt 0.0597771875 0.3297053125
vt 0.0597771875 0.40625
vt 0.0964728125 0.35522156250000003
vt 0.1535271875 0.3297053125
vt 0.1535271875 0.40625
vt 0.2839728125 0.35522156250000003
vt 0.3410271875 0.3297053125
vt 0.3410271875 0.40625
vn 0 -2.220446049250313e-16 1
vn -0.9701425001453319 1.726619177934172e-16 -0.24253562503633297
vn -1.1880819075197913e-16 -0.9701425001453319 -0.2425356250363332
vn 1.1880819075197915e-16 0.9701425001453321 -0.2425356250363328
vn 0.9701425001453319 -6.495446371054104e-17 -0.24253562503633297
usemtl texture_principale
f 21/57/17 20/58/17 22/59/17 23/60/17
f 20/61/18 21/62/18 19/63/18
f 22/64/19 20/65/19 19/66/19
f 21/67/20 23/68/20 19/69/20
f 23/70/21 22/71/21 19/72/21
o p14
v 0.125 0.3437499999999999 -0.8156249999999999
v 0.062499999999999986 0.2812499999999999 -0.5656249999999999
v 0.0625 0.4062499999999999 -0.5656249999999999
v 0.1875 0.28124999999999983 -0.5656249999999999
v 0.1875 0.40624999999999983 -0.5656249999999999
vt 0.4375 0.34375
vt 0.4375 0.40625
vt 0.375 0.40625
vt 0.375 0.34375
vt 0.1902228125 0.35522156250000003
vt 0.2472771875 0.3297053125
vt 0.2472771875 0.40625
vt 0.0027228125 0.35522156250000003
vt 0.0597771875 0.3297053125
vt 0.0597771875 0.40625
vt 0.0964728125 0.35522156250000003
vt 0.1535271875 0.3297053125
vt 0.1535271875 0.40625
vt 0.2839728125 0.35522156250000003
vt 0.3410271875 0.3297053125
vt 0.3410271875 0.40625
vn 0 -2.220446049250313e-16 1
vn -0.9701425001453319 1.726619177934172e-16 -0.24253562503633297
vn -1.1880819075197913e-16 -0.9701425001453319 -0.2425356250363332
vn 1.1880819075197915e-16 0.9701425001453321 -0.2425356250363328
vn 0.9701425001453319 -6.495446371054104e-17 -0.24253562503633297
usemtl texture_principale
f 26/73/22 25/74/22 27/75/22 28/76/22
f 25/77/23 26/78/23 24/79/23
f 27/80/24 25/81/24 24/82/24
f 26/83/25 28/84/25 24/85/25
f 28/86/26 27/87/26 24/88/26
o p13
v -0.125 0.3437499999999999 -0.8156249999999999
v -0.062499999999999986 0.2812499999999999 -0.5656249999999999
v -0.1875 0.28124999999999983 -0.5656249999999999
v -0.06250000000000001 0.4062499999999999 -0.5656249999999999
v -0.1875 0.40624999999999983 -0.5656249999999999
vt 0.4375 0.34375
vt 0.4375 0.40625
vt 0.375 0.40625
vt 0.375 0.34375
vt 0.1902228125 0.35522156250000003
vt 0.2472771875 0.3297053125
vt 0.2472771875 0.40625
vt 0.0027228125 0.35522156250000003
vt 0.0597771875 0.3297053125
vt 0.0597771875 0.40625
vt 0.0964728125 0.35522156250000003
vt 0.1535271875 0.3297053125
vt 0.1535271875 0.40625
vt 0.2839728125 0.35522156250000003
vt 0.3410271875 0.3297053125
vt 0.3410271875 0.40625
vn 0 -2.220446049250313e-16 1
vn 2.1541490816575234e-16 -0.9701425001453319 -0.2425356250363332
vn 0.9701425001453319 2.6926863520719046e-16 -0.24253562503633297
vn -0.9701425001453319 -1.6156118112431426e-16 -0.24253562503633297
vn -2.154149081657524e-16 0.9701425001453321 -0.2425356250363328
usemtl texture_principale
f 31/89/27 30/90/27 32/91/27 33/92/27
f 30/93/28 31/94/28 29/95/28
f 32/96/29 30/97/29 29/98/29
f 31/99/30 33/100/30 29/101/30
f 33/102/31 32/103/31 29/104/31
o p9
v -0.125 0.5625 -0.8156249999999999
v -0.1875 0.49999999999999994 -0.5656249999999999
v -0.1875 0.6249999999999999 -0.5656249999999999
v -0.0625 0.4999999999999999 -0.5656249999999999
v -0.062499999999999986 0.6249999999999999 -0.5656249999999999
vt 0.4375 0.34375
vt 0.4375 0.40625
vt 0.375 0.40625
vt 0.375 0.34375
vt 0.1902228125 0.35522156250000003
vt 0.2472771875 0.3297053125
vt 0.2472771875 0.40625
vt 0.0027228125 0.35522156250000003
vt 0.0597771875 0.3297053125
vt 0.0597771875 0.40625
vt 0.0964728125 0.35522156250000003
vt 0.1535271875 0.3297053125
vt 0.1535271875 0.40625
vt 0.2839728125 0.35522156250000003
vt 0.3410271875 0.3297053125
vt 0.3410271875 0.40625
vn 0 -2.220446049250313e-16 1
vn -0.9701425001453319 1.726619177934172e-16 -0.24253562503633297
vn -1.1880819075197913e-16 -0.9701425001453319 -0.2425356250363332
vn 1.1880819075197915e-16 0.9701425001453321 -0.2425356250363328
vn 0.9701425001453319 -6.495446371054104e-17 -0.24253562503633297
usemtl texture_principale
f 36/105/32 35/106/32 37/107/32 38/108/32
f 35/109/33 36/110/33 34/111/33
f 37/112/34 35/113/34 34/114/34
f 36/115/35 38/116/35 34/117/35
f 38/118/36 37/119/36 34/120/36